<svg version="1.1" xmlns="http://www.w3.org/2000/svg" viewBox="-48.99982458830975 -6.1473799436271195 98.000002 12.294775693692678" fill="none" stroke="black" stroke-width="0.6%" vector-effect="non-scaling-stroke">
    <path d="M -33.94099 -4.51754 A 48 2.1504 360 0 1 48.00018 -2.99698 A 48 2.1504 360 0 1 -47.99982 -2.99698 A 48 2.1504 360 0 1 -33.94099 -4.51754 Z" />
    <path d="M -47.99982 2.997 A 48 2.1504 180 0 0 48.00018 2.997" />
    <path d="M -33.23389 -4.48586 A 47 2.1056 360 0 1 47.00018 -2.99698 A 47 2.1056 360 0 1 -46.99982 -2.99698 A 47 2.1056 360 0 1 -33.23389 -4.48586 Z" />
    <path d="M 9.36935 -2.57724 A 13.25 0.5936 180 0 0 13.25018 -2.99698 A 13.25 0.5936 180 0 0 -13.24982 -2.99698 A 13.25 0.5936 180 0 0 9.36935 -2.57724 Z" />
    <path d="M 11.50823 -2.60179 A 5 0.224 360 0 1 18.43522 -2.39509 A 5 0.224 360 0 1 8.43522 -2.39509 A 5 0.224 360 0 1 8.82146 -2.48142 A 14.5 0.6496 360 0 1 -1.88523 -2.3529 A 5 0.224 360 0 1 0.08264 -2.17478 A 5 0.224 360 0 1 -9.91736 -2.17478 A 5 0.224 360 0 1 -5.55543 -2.39695 A 14.5 0.6496 360 0 1 -13.39329 -2.74809 A 5 0.224 360 0 1 -23.35241 -2.77667 A 5 0.224 360 0 1 -14.37672 -2.91251 A 14.5 0.6496 360 0 1 -14.49982 -2.99698 A 14.5 0.6496 360 0 1 -11.50788 -3.39217 A 5 0.224 360 0 1 -18.43487 -3.59887 A 5 0.224 360 1 1 -8.43487 -3.59887 A 5 0.224 360 0 1 -8.82111 -3.51254 A 14.5 0.6496 360 0 1 1.88558 -3.64106 A 5 0.224 360 0 1 -0.08229 -3.81918 L -0.08229 -3.64657" />
    <path d="M -0.08229 -3.81918 A 5 0.224 360 0 1 9.91771 -3.81918 L 9.91771 -3.47087" />
    <path d="M 9.91771 -3.81918 A 5 0.224 360 0 1 5.55578 -3.59701 A 14.5 0.6496 360 0 1 13.39364 -3.24587 A 5 0.224 360 0 1 23.35276 -3.21729 L 23.35276 -1.16968" />
    <path d="M 23.35276 -3.21729 A 5 0.224 360 0 1 14.37707 -3.08145 A 14.5 0.6496 360 0 1 14.50018 -2.99698 L 14.50018 -2.61395" />
    <path d="M 14.50018 -2.99698 A 14.5 0.6496 360 0 1 11.50823 -2.60179" />
    <path d="M -3.88209 -2.34788 A 4 0.1792 360 0 1 -0.91736 -2.17478 A 4 0.1792 360 0 1 -8.91736 -2.17478 A 4 0.1792 360 0 1 -3.88209 -2.34788 Z" />
    <path d="M -14.48871 -2.82305 A 4 0.1792 360 0 1 -14.35241 -2.77667 A 4 0.1792 360 0 1 -22.35241 -2.77667 A 4 0.1792 360 0 1 -14.48871 -2.82305 Z" />
    <path d="M 10.60679 -2.52181 A 4 0.1792 360 0 1 17.43522 -2.39509 A 4 0.1792 360 0 1 9.43522 -2.39509 A 4 0.1792 360 0 1 10.60679 -2.52181 Z" />
    <path d="M 14.48906 -3.17091 A 4 0.1792 360 0 1 14.35276 -3.21729 A 4 0.1792 360 0 1 22.35276 -3.21729 A 4 0.1792 360 0 1 14.48906 -3.17091 Z" />
    <path d="M -10.60644 -3.47215 A 4 0.1792 360 0 1 -17.43487 -3.59887 A 4 0.1792 360 1 1 -9.43487 -3.59887 A 4 0.1792 360 0 1 -10.60644 -3.47215 Z" />
    <path d="M 3.88244 -3.64608 A 4 0.1792 360 0 1 0.91771 -3.81918 A 4 0.1792 360 0 1 8.91771 -3.81918 A 4 0.1792 360 0 1 3.88244 -3.64608 Z" />
    <path d="M -13.39329 -2.74809 L -13.39329 -1.36305" />
    <path d="M -45.38941 -2.45052 A 46.5 2.0832 360 0 1 -38.18976 -3.18647" />
    <path d="M -23.35241 -2.72104 L -38.18976 -3.18647" />
    <path d="M 15.63399 -1.01128 L 13.47056 -1.1497 A 5.5 0.2464 360 0 1 9.34684 -1.23128 A 19.5 0.8736 360 0 1 0.46279 -1.12463 A 5.5 0.2464 360 0 1 -10.41736 -1.17579 A 5.5 0.2464 360 0 1 -10.14767 -1.252 L -10.14767 -1.09958" />
    <path d="M -10.14767 -1.252 A 19.5 0.8736 360 0 1 -16.65126 -1.54336 A 5.5 0.2464 360 0 1 -23.85241 -1.77768 A 5.5 0.2464 360 0 1 -23.35241 -1.88033" />
    <path d="M 31.60782 -1.43864 L 31.60782 -3.14644 L 19.16272 -3.70398 L 11.80355 -3.37429" />
    <path d="M 23.35276 -2.77661 L 31.60782 -3.14644" />
    <path d="M -47.99982 -2.99698 L -47.99982 2.997" />
    <path d="M 48.00018 -2.99698 L 48.00018 2.997" />
    <path d="M 8.43522 -2.39509 L 8.43522 -1.21034" />
    <path d="M 18.43522 -2.39509 L 18.43522 -1.06011" />
    <path d="M -18.43487 -3.59887 L -18.43487 -3.00064" />
    <path d="M -8.43487 -3.59887 L -8.43487 -3.52535" />
    <path d="M -14.49982 -2.99698 L -14.49982 -2.91945" />
    <path d="M -23.35241 -2.77667 L -23.35241 -1.67503" />
    <path d="M -9.91736 -2.17478 L -9.91736 -1.07314" />
    <path d="M 0.08264 -2.17478 L 0.08264 -1.07314" />
</svg>