<svg version="1.1" xmlns="http://www.w3.org/2000/svg" viewBox="-48.98241168227156 -6.149122886329758 98.000002 12.299823221148767" fill="none" stroke="black" stroke-width="0.6%" vector-effect="non-scaling-stroke">
    <path d="M -33.92793 -4.51835 A 48 2.15293 0 0 1 48.01759 -2.99619 A 48 2.15293 0 0 1 -47.98241 -2.99619 A 48 2.15293 0 0 1 -33.92793 -4.51835 Z" />
    <path d="M -47.98241 2.99777 A 48 2.15293 180 1 0 48.01759 2.99777" />
    <path d="M -33.22073 -4.48663 A 47 2.10808 0 0 1 47.01759 -2.99619 A 47 2.10808 0 0 1 -46.98241 -2.99619 A 47 2.10808 0 0 1 -33.22073 -4.48663 Z" />
    <path d="M 9.38797 -2.57601 A 13.25 0.5943 180 0 0 13.26759 -2.99619 A 13.25 0.5943 180 1 0 -13.23241 -2.99619 A 13.25 0.5943 180 0 0 9.38797 -2.57601 Z" />
    <path d="M 11.52678 -2.6006 A 5 0.22426 0 0 1 18.45436 -2.39367 A 5 0.22426 0 0 1 8.45436 -2.39367 A 5 0.22426 0 0 1 8.84035 -2.48008 A 14.5 0.65036 0 0 1 -1.86597 -2.35134 A 5 0.22426 360 0 1 0.1024 -2.173 A 5 0.22426 360 0 1 -9.8976 -2.173 A 5 0.22426 360 0 1 -5.5363 -2.39543 A 14.5 0.65036 0 0 1 -13.37516 -2.74693 A 5 0.22426 360 0 1 -23.33436 -2.77552 A 5 0.22426 360 0 1 -14.35906 -2.91154 A 14.5 0.65036 0 0 1 -14.48241 -2.99619 A 14.5 0.65036 0 0 1 -11.4916 -3.39178 A 5 0.22426 0 0 1 -18.41918 -3.59871 A 5 0.22426 0 1 1 -8.41918 -3.59871 A 5 0.22426 0 0 1 -8.80517 -3.51231 A 14.5 0.65036 0 0 1 1.90115 -3.64105 A 5 0.22426 0 0 1 -0.06722 -3.81938 L -0.06722 -3.64655" />
    <path d="M -0.06722 -3.81938 A 5 0.22426 0 0 1 9.93278 -3.81938 L 9.93278 -3.47074" />
    <path d="M 9.93278 -3.81938 A 5 0.22426 0 0 1 5.57148 -3.59696 A 14.5 0.65036 0 0 1 13.41034 -3.24545 A 5 0.22426 0 0 1 23.36954 -3.21686 L 23.36954 -1.16673" />
    <path d="M 23.36954 -3.21686 A 5 0.22426 0 0 1 14.39424 -3.08084 A 14.5 0.65036 0 0 1 14.51759 -2.99619 L 14.51759 -2.61281" />
    <path d="M 14.51759 -2.99619 A 14.5 0.65036 0 0 1 11.52678 -2.6006" />
    <path d="M -3.86282 -2.3463 A 4 0.17941 360 0 1 -0.8976 -2.173 A 4 0.17941 360 0 1 -8.8976 -2.173 A 4 0.17941 360 0 1 -3.86282 -2.3463 Z" />
    <path d="M -14.4708 -2.82198 A 4 0.17941 360 0 1 -14.33436 -2.77552 A 4 0.17941 360 0 1 -22.33436 -2.77552 A 4 0.17941 360 0 1 -14.4708 -2.82198 Z" />
    <path d="M 10.62556 -2.52052 A 4 0.17941 0 0 1 17.45436 -2.39367 A 4 0.17941 0 0 1 9.45436 -2.39367 A 4 0.17941 0 0 1 10.62556 -2.52052 Z" />
    <path d="M 14.50597 -3.17041 A 4 0.17941 0 0 1 14.36954 -3.21686 A 4 0.17941 0 0 1 22.36954 -3.21686 A 4 0.17941 0 0 1 14.50597 -3.17041 Z" />
    <path d="M -10.59039 -3.47187 A 4 0.17941 0 0 1 -17.41918 -3.59871 A 4 0.17941 0 1 1 -9.41918 -3.59871 A 4 0.17941 0 0 1 -10.59039 -3.47187 Z" />
    <path d="M 3.898 -3.64608 A 4 0.17941 0 0 1 0.93278 -3.81938 A 4 0.17941 0 0 1 8.93278 -3.81938 A 4 0.17941 0 0 1 3.898 -3.64608 Z" />
    <path d="M -13.37516 -2.74693 L -13.37516 -1.36148" />
    <path d="M -45.37519 -2.44962 A 46.5 2.08565 0 0 1 -38.17575 -3.18687" />
    <path d="M -23.33436 -2.72089 L -38.17575 -3.18687" />
    <path d="M 15.66954 -1.00844 L 13.4904 -1.14799 A 5.5 0.24669 0 0 1 9.36645 -1.22964 A 19.5 0.87463 0 0 1 0.4827 -1.12282 A 5.5 0.24669 0 0 1 -10.3976 -1.17401 A 5.5 0.24669 0 0 1 -10.12812 -1.25028 L -10.12812 -1.09774" />
    <path d="M -10.12812 -1.25028 A 19.5 0.87463 0 0 1 -16.63255 -1.54194 A 5.5 0.24669 0 0 1 -23.83436 -1.77653 A 5.5 0.24669 0 0 1 -23.33436 -1.8793" />
    <path d="M 31.62223 -1.43589 L 31.62223 -3.14707 L 19.17554 -3.70519 L 11.80896 -3.3747" />
    <path d="M 23.36954 -2.77682 L 31.62223 -3.14707" />
    <path d="M -47.98241 -2.99619 L -47.98241 2.99777" />
    <path d="M 48.01759 -2.99619 L 48.01759 2.99777" />
    <path d="M 8.45436 -2.39367 L 8.45436 -1.20867" />
    <path d="M 18.45436 -2.39367 L 18.45436 -1.05708" />
    <path d="M -18.41918 -3.59871 L -18.41918 -2.99975" />
    <path d="M -8.41918 -3.59871 L -8.41918 -3.52513" />
    <path d="M -14.48241 -2.99619 L -14.48241 -2.9185" />
    <path d="M -23.33436 -2.77552 L -23.33436 -1.67376" />
    <path d="M -9.8976 -2.173 L -9.8976 -1.07124" />
    <path d="M 0.1024 -2.173 L 0.1024 -1.07124" />
</svg>