<svg version="1.1" xmlns="http://www.w3.org/2000/svg" viewBox="-48.29215073713614 -5.431000551161968 98.000002 15.730217111471159" fill="none" stroke="black" stroke-width="0.6%" vector-effect="non-scaling-stroke">
    <path d="M -47.29215 5.42432 A 48 3.8749 180 0 0 48.70785 5.42432" />
    <path d="M -37.85366 1.75135 A 48 3.8749 360 0 1 -47.29215 -0.5561 A 48 3.8749 360 0 1 -33.5806 -3.26774 A 48 3.8749 360 0 1 48.70785 -0.5561 A 48 3.8749 360 0 1 -29.12791 2.47931 L -29.12791 5.46952" />
    <path d="M -29.14033 5.71857 C -29.14 5.74 -29.15 5.77 -29.14834 5.78832 C -29.15 5.81 -29.15 5.83 -29.15836 5.85773 C -29.16 5.88 -29.17 5.9 -29.17039 5.92673 C -29.17 5.95 -29.18 5.97 -29.18443 5.99528 C -29.19 6.02 -29.19 6.04 -29.2005 6.0633 C -29.21 6.09 -29.21 6.11 -29.21861 6.13074 C -29.22 6.15 -29.23 6.18 -29.23878 6.19752 C -29.25 6.22 -29.25 6.24 -29.26102 6.26358 C -29.27 6.29 -29.28 6.31 -29.28533 6.32884 C -29.29 6.35 -29.3 6.37 -29.31175 6.39322 C -29.32 6.41 -29.33 6.44 -29.34027 6.45664 C -29.35 6.48 -29.36 6.5 -29.37093 6.51902 C -29.38 6.54 -29.39 6.56 -29.40373 6.58026 C -29.42 6.6 -29.43 6.62 -29.4387 6.64027 C -29.45 6.66 -29.46 6.68 -29.47584 6.69894 C -29.49 6.72 -29.5 6.74 -29.51517 6.75616 C -29.53 6.77 -29.54 6.79 -29.54807 6.80061 C -29.56 6.82 -29.57 6.83 -29.58237 6.84401 C -29.59 6.86 -29.61 6.87 -29.61808 6.88629 C -29.63 6.9 -29.64 6.91 -29.65521 6.92737 C -29.67 6.94 -29.68 6.95 -29.69373 6.96717 C -29.71 6.98 -29.72 6.99 -29.73367 7.00563 C -29.75 7.02 -29.76 7.03 -29.775 7.04265 C -29.79 7.05 -29.8 7.07 -29.81772 7.07816 C -29.84 7.1 -29.86 7.11 -29.88691 7.13017 C -29.91 7.15 -29.93 7.16 -29.95933 7.17791 C -29.98 7.19 -30.01 7.21 -30.03484 7.22101 C -30.06 7.23 -30.09 7.25 -30.11328 7.25907 C -30.17 7.29 -30.24 7.31 -30.30118 7.32487 C -30.37 7.34 -30.43 7.35 -30.49894 7.35856 L -31.97467 7.48017 A 2 1.42402 265.28918 0 1 -32.13892 7.4804 L -36.42498 7.14144 A 2 1.42402 265.28918 0 1 -37.85084 5.16038 L -37.85366 5.03499 L -37.85366 -0.94543 L -37.8424 -1.19439 A 2 1.42402 265.28918 0 1 -36.58923 -2.82569 A 2 1.42402 265.28918 0 1 -36.42498 -2.82592 L -32.13892 -2.48696 A 2 1.42402 265.28918 0 1 -30.71305 -0.5059 L -23.71509 -1.08257 L -23.71227 -0.95718 L -23.71227 2.68573" />
    <path d="M -29.14033 5.71857 L -29.13944 5.70078 L -29.13855 5.68299 L -29.13767 5.6652 L -29.13678 5.64741 L -29.13589 5.62962 L -29.135 5.61183 L -29.13412 5.59404 L -29.13323 5.57625 L -29.13234 5.55846 L -29.13146 5.54067 L -29.13057 5.52289 L -29.12968 5.5051 L -29.12879 5.48731 L -29.12791 5.46952" />
    <path d="M -29.12791 2.47931 L -28.4242 2.42132" />
    <path d="M -37.85366 1.61305 A 47 3.79417 360 0 1 -46.29215 -0.5561 A 47 3.79417 360 0 1 47.70785 -0.5561 A 47 3.79417 360 0 1 -28.4242 2.42132" />
    <path d="M -30.7215 5.84887 A 2 1.42402 265.28918 0 1 -31.97467 7.48017" />
    <path d="M -30.7215 5.84887 L -29.14033 5.71857" />
    <path d="M -30.71023 5.59991 L -30.7215 5.84887" />
    <path d="M -30.71023 5.59991 L -29.12791 5.46952" />
    <path d="M -30.71023 -0.38051 L -30.71023 5.59991" />
    <path d="M -30.71023 -0.38051 L -23.71227 -0.95718" />
    <path d="M 10.17289 0.19242 A 13.25 1.06963 180 0 0 13.95785 -0.5561 A 13.25 1.06963 180 0 0 -12.54215 -0.5561 A 13.25 1.06963 180 0 0 10.17289 0.19242 Z" />
    <path d="M -22.59319 1.13251 A 47 3.79417 180 0 0 -23.71227 1.18575" />
    <path d="M -30.71305 -0.5059 L -30.71023 -0.38051" />
    <path d="M -29.59127 -3.40236 A 2 1.42402 265.28918 0 1 -29.42702 -3.40259 L -25.14096 -3.06363 A 2 1.42402 265.28918 0 1 -23.71509 -1.08257" />
    <path d="M 12.30602 0.14642 A 5 0.40364 360 0 1 19.28036 0.51726 L 19.28036 2.92927" />
    <path d="M 19.28036 0.51726 A 5 0.40364 360 0 1 9.28036 0.51726 L 9.28036 3.17443" />
    <path d="M 9.28036 0.51726 A 5 0.40364 360 0 1 9.64703 0.36554 A 14.5 1.17054 360 0 1 -1.02959 0.60601 A 5 0.40364 360 0 1 0.97933 0.92945 L 0.97933 3.23801" />
    <path d="M 0.97933 0.92945 A 5 0.40364 360 0 1 -9.02067 0.92945 L -9.02067 3.1559" />
    <path d="M -9.02067 0.92945 A 5 0.40364 360 0 1 -4.70971 0.52967 A 14.5 1.17054 360 0 1 -12.62777 -0.09651 L -12.62777 3.08214" />
    <path d="M -12.62777 -0.09651 A 5 0.40364 360 0 1 -22.59319 -0.1439 L -22.59319 2.73897" />
    <path d="M -22.59319 -0.1439 A 5 0.40364 360 0 1 -13.64889 -0.39197 A 14.5 1.17054 360 0 1 -13.79215 -0.5561 L -13.79215 -0.40614" />
    <path d="M -13.79215 -0.5561 A 14.5 1.17054 360 0 1 -10.89032 -1.25862 A 5 0.40364 360 0 1 -17.86466 -1.62946 L -17.86466 -0.54694" />
    <path d="M -17.86466 -1.62946 A 5 0.40364 360 0 1 -7.86466 -1.62946 L -7.86466 -1.50017" />
    <path d="M -7.86466 -1.62946 A 5 0.40364 360 0 1 -8.23133 -1.47774 A 14.5 1.17054 360 0 1 2.44529 -1.71821 A 5 0.40364 360 0 1 0.43637 -2.04166 L 0.43637 -1.72644" />
    <path d="M 0.43637 -2.04166 A 5 0.40364 360 0 1 10.43637 -2.04166 L 10.43637 -1.42408" />
    <path d="M 10.43637 -2.04166 A 5 0.40364 360 0 1 6.12541 -1.64187 A 14.5 1.17054 360 0 1 14.04347 -1.01569 A 5 0.40364 360 0 1 24.00889 -0.9683 L 24.00889 2.73897" />
    <path d="M 24.00889 -0.9683 A 5 0.40364 360 0 1 15.06459 -0.72024 A 14.5 1.17054 360 0 1 15.20785 -0.5561 L 15.20785 0.12063" />
    <path d="M 15.20785 -0.5561 A 14.5 1.17054 360 0 1 12.30602 0.14642" />
    <path d="M -3.0252 0.61671 A 4 0.32291 360 0 1 -0.02067 0.92945 A 4 0.32291 360 0 1 -8.02067 0.92945 A 4 0.32291 360 0 1 -3.0252 0.61671 Z" />
    <path d="M -13.74034 -0.23068 A 4 0.32291 360 0 1 -13.59319 -0.1439 A 4 0.32291 360 0 1 -21.59319 -0.1439 A 4 0.32291 360 0 1 -13.74034 -0.23068 Z" />
    <path d="M 11.42299 0.29129 A 4 0.32291 360 0 1 18.28036 0.51726 A 4 0.32291 360 0 1 10.28036 0.51726 A 4 0.32291 360 0 1 11.42299 0.29129 Z" />
    <path d="M 15.15604 -0.88152 A 4 0.32291 360 0 1 15.00889 -0.9683 A 4 0.32291 360 0 1 23.00889 -0.9683 A 4 0.32291 360 0 1 15.15604 -0.88152 Z" />
    <path d="M -10.00729 -1.40349 A 4 0.32291 360 0 1 -16.86466 -1.62946 A 4 0.32291 360 0 1 -8.86466 -1.62946 A 4 0.32291 360 0 1 -10.00729 -1.40349 Z" />
    <path d="M 4.4409 -1.72891 A 4 0.32291 360 0 1 1.43637 -2.04166 A 4 0.32291 360 0 1 9.43637 -2.04166 A 4 0.32291 360 0 1 4.4409 -1.72891 Z" />
    <path d="M -22.59319 2.15936 L -23.71227 2.09748" />
    <path d="M -38.98608 1.47558 A 46.5 3.75381 360 0 1 -37.85366 1.33309" />
    <path d="M 25.21123 2.68163 L 25.21123 2.58343 L 37.80756 1.54543 L 32.0731 1.09193" />
    <path d="M 24.00889 2.48835 L 25.21123 2.58343" />
    <path d="M 37.80756 1.77328 L 37.80756 1.54543" />
    <path d="M 32.0731 1.21624 L 24.00889 1.88077" />
    <path d="M 32.0731 1.21624 L 32.0731 -1.57462 L 19.50067 -2.56889 L 10.43637 -1.82194" />
    <path d="M 24.00889 -0.91009 L 32.0731 -1.57462" />
    <path d="M 10.43637 -1.50018 L 14.6541 -1.16663" />
    <path d="M -36.42498 -2.82592 L -29.42702 -3.40259" />
    <path d="M -32.13892 -2.48696 L -25.14096 -3.06363" />
    <path d="M -47.29215 -0.5561 L -47.29215 5.42432" />
    <path d="M 48.70785 -0.5561 L 48.70785 5.42432" />
    <path d="M -29.59127 -3.40236 L -36.58923 -2.82569" />
</svg>