<svg version="1.1" xmlns="http://www.w3.org/2000/svg" viewBox="-46.000001 -11.197420154289423 92.000002 22.39484030857885" fill="none" stroke="black" stroke-width="0.6%" vector-effect="non-scaling-stroke">
    <path d="M -31.81981 -8.96026 A 45 4.22391 0 0 1 45 -5.97351 A 45 4.22391 0 0 1 -45 -5.97351 A 45 4.22391 0 0 1 -31.81981 -8.96026 Z" />
    <path d="M -45 5.97351 A 45 4.22391 180 0 0 45 5.97351 L 45 -5.97351" />
    <path d="M 9.36916 -5.09408 A 13.25 1.24371 0 0 1 -13.25 -5.97351 A 13.25 1.24371 0 0 1 13.25 -5.97351 A 13.25 1.24371 0 0 1 9.36916 -5.09408 Z" />
    <path d="M -45 5.97351 L -45 -5.97351" />
</svg>