<svg version="1.1" xmlns="http://www.w3.org/2000/svg" viewBox="-45.98251189028994 -6.148121122447113 92.000002 12.297914825003634" fill="none" stroke="black" stroke-width="0.6%" vector-effect="non-scaling-stroke">
    <path d="M -31.80668 -4.51749 A 45 2.15239 360 0 1 45.01749 -2.99573 A 45 2.15239 360 0 1 -44.98251 -2.99573 A 45 2.15239 360 0 1 -31.80668 -4.51749 Z" />
    <path d="M -44.98251 2.9974 A 45 2.15239 180 0 0 45.01749 2.9974" />
    <path d="M -30.39228 -4.44986 A 43 2.05673 360 0 1 43.01749 -2.99573 A 43 2.05673 360 0 1 -42.98251 -2.99573 A 43 2.05673 360 0 1 -30.39228 -4.44986 Z" />
    <path d="M 9.38794 -2.54766 A 13.25 0.63376 180 0 0 13.26749 -2.99573 A 13.25 0.63376 180 0 0 -13.23251 -2.99573 A 13.25 0.63376 180 0 0 9.38794 -2.54766 Z" />
    <path d="M 10.27194 -2.50538 A 14.5 0.69355 360 0 1 -14.48251 -2.99573 A 14.5 0.69355 360 0 1 14.51749 -2.99573 A 14.5 0.69355 360 0 1 10.27194 -2.50538 Z" />
    <path d="M -3.86281 -2.30269 A 5 0.23915 360 0 1 -0.15624 -2.07167 A 5 0.23915 360 0 1 -10.15624 -2.07167 A 5 0.23915 360 0 1 -3.86281 -2.30269 Z" />
    <path d="M -14.47087 -2.80994 A 5 0.23915 360 0 1 -14.30032 -2.74801 A 5 0.23915 360 0 1 -24.30032 -2.74801 A 5 0.23915 360 0 1 -14.47087 -2.80994 Z" />
    <path d="M 10.62555 -2.48848 A 5 0.23915 360 0 1 19.16157 -2.31939 A 5 0.23915 360 0 1 9.16157 -2.31939 L 9.16157 -0.98604" />
    <path d="M 9.16157 -2.31939 A 5 0.23915 360 0 1 10.62555 -2.48848" />
    <path d="M 14.50584 -3.18152 A 5 0.23915 360 0 1 14.33529 -3.24345 L 14.33529 -3.10533" />
    <path d="M 14.33529 -3.24345 A 5 0.23915 360 0 1 24.33529 -3.24345 L 24.33529 -1.29949" />
    <path d="M 24.33529 -3.24345 A 5 0.23915 360 0 1 14.50584 -3.18152" />
    <path d="M -10.59057 -3.50298 A 5 0.23915 360 0 1 -19.12659 -3.67207 L -19.12659 -2.98702" />
    <path d="M -19.12659 -3.67207 A 5 0.23915 360 0 1 -9.12659 -3.67207 L -9.12659 -3.53398" />
    <path d="M -9.12659 -3.67207 A 5 0.23915 360 0 1 -10.59057 -3.50298" />
    <path d="M 3.89779 -3.68877 A 5 0.23915 360 0 1 0.19122 -3.91979 L 0.19122 -3.68923" />
    <path d="M 0.19122 -3.91979 A 5 0.23915 360 1 1 10.19122 -3.91979 L 10.19122 -3.48991" />
    <path d="M 10.19122 -3.91979 A 5 0.23915 360 0 1 3.89779 -3.68877" />
    <path d="M -4.12149 -2.25649 A 4 0.19132 360 0 1 -1.15624 -2.07167 A 4 0.19132 360 0 1 -9.15624 -2.07167 A 4 0.19132 360 0 1 -4.12149 -2.25649 Z" />
    <path d="M -15.43676 -2.79756 A 4 0.19132 360 0 1 -15.30032 -2.74801 A 4 0.19132 360 0 1 -23.30032 -2.74801 A 4 0.19132 360 0 1 -15.43676 -2.79756 Z" />
    <path d="M 11.33275 -2.45466 A 4 0.19132 360 0 1 18.16157 -2.31939 A 4 0.19132 360 0 1 10.16157 -2.31939 A 4 0.19132 360 0 1 11.33275 -2.45466 Z" />
    <path d="M 15.47173 -3.1939 A 4 0.19132 360 0 1 15.33529 -3.24345 A 4 0.19132 360 0 1 23.33529 -3.24345 A 4 0.19132 360 0 1 15.47173 -3.1939 Z" />
    <path d="M -11.29777 -3.5368 A 4 0.19132 360 0 1 -18.12659 -3.67207 A 4 0.19132 360 0 1 -10.12659 -3.67207 A 4 0.19132 360 0 1 -11.29777 -3.5368 Z" />
    <path d="M 4.15647 -3.73497 A 4 0.19132 360 0 1 1.19122 -3.91979 A 4 0.19132 360 1 1 9.19122 -3.91979 A 4 0.19132 360 0 1 4.15647 -3.73497 Z" />
    <path d="M -44.98251 -2.99573 L -44.98251 2.9974" />
    <path d="M 45.01749 -2.99573 L 45.01749 2.9974" />
    <path d="M -14.48251 -2.99573 L -14.48251 -2.81198" />
    <path d="M 14.51749 -2.99573 L 14.51749 -2.55794" />
    <path d="M -10.15624 -2.07167 L -10.15624 -0.9974" />
    <path d="M -0.15624 -2.07167 L -0.15624 -0.93902" />
    <path d="M -24.30032 -2.74801 L -24.30032 -1.29949" />
    <path d="M -14.30032 -2.74801 L -14.30032 -1.05637" />
    <path d="M 19.16157 -2.31939 L 19.16157 -1.15408" />
</svg>